<?xml version="1.0" encoding="utf-8"?>
<!-- Generator: Adobe Illustrator 19.0.0, SVG Export Plug-In . SVG Version: 6.00 Build 0)  -->
<svg version="1.1" id="圖層_1" xmlns="http://www.w3.org/2000/svg" xmlns:xlink="http://www.w3.org/1999/xlink" x="0px" y="0px"
	 viewBox="-241 332 129 129" style="enable-background:new -241 332 129 129;" xml:space="preserve">
<g>
	<g>
		<path d="M-234.5,398.2c0.9,32,27.7,57.3,59.8,56.4s57.2-27.7,56.3-59.8c-0.9-32.1-27.7-57.2-59.7-56.3S-235.4,366.2-234.5,398.2z
			 M-126.5,395c0.8,27.5-20.9,50.5-48.4,51.3s-50.5-20.9-51.3-48.4c-0.8-27.5,20.9-50.5,48.4-51.3S-127.3,367.5-126.5,395z"/>
		<path d="M-205.2,402.8c-0.8,0.8-1.1,1.8-1.1,2.9c0,1,0.5,2.1,1.3,2.9c1.6,1.6,4.2,1.5,5.8-0.2l22.8-24.2l24.2,22.8
			c1.6,1.6,4.2,1.5,5.8-0.2c1.6-1.6,1.5-4.2-0.2-5.8l-27.2-25.6c-0.8-0.8-1.8-1.1-2.9-1.1c-1.1,0-2.1,0.5-2.9,1.3L-205.2,402.8z"/>
	</g>
</g>
</svg>
